<svg id="Layer_1" data-name="Layer 1" xmlns="http://www.w3.org/2000/svg" viewBox="0 0 442.73 162.36">
  <defs>
    <style>
      .cls-1 {
        fill: #fff;
      }
    </style>
  </defs>
  <title>deathboys_logo</title>
  <g>
    <path class="cls-1" d="M29.78,104.74c-1.67,0-2.51,1.22-2.51,2.79a2.61,2.61,0,0,0,2.51,2.86H66.9a2.43,2.43,0,0,0,2.51-2.72c0-1.7-.77-2.93-2.51-2.93Z"/>
    <path class="cls-1" d="M69.41,101.06A2.21,2.21,0,0,0,70,102.7a42.41,42.41,0,0,1,4.81,7.82,1.88,1.88,0,0,0,1.88,1.22,2.13,2.13,0,0,0,2.37-1.9,4,4,0,0,0-.35-1.63,34.34,34.34,0,0,0-5.29-8,2.81,2.81,0,0,0-1.95-1A2,2,0,0,0,69.41,101.06Z"/>
    <path class="cls-1" d="M78.18,121.88H23.86a2.4,2.4,0,0,0-2.51,2.65c0,1.56.84,2.79,2.44,2.79H50c-.07,7.08-1.46,12.25-4.18,16.53-2.86,4.69-8,8.16-14.14,9.66a2.71,2.71,0,0,0-2,2.72,3.77,3.77,0,0,0,.21,1.22,2.44,2.44,0,0,0,2.58,1.63,6.34,6.34,0,0,0,1.53-.2c7-1.84,13.09-5.78,16.79-11.5,3.55-5.31,5.36-11.9,5.43-20.07H78.25a2.35,2.35,0,0,0,2.44-2.65C80.69,123,79.93,121.88,78.18,121.88Z"/>
    <path class="cls-1" d="M38.63,0V27.05a16.11,16.11,0,0,0-6.18-4.55,19.24,19.24,0,0,0-8.27-2.11q-11.65,0-17.92,7.2T0,47.49q0,12.92,6.16,20T24,74.55a19.77,19.77,0,0,0,8.87-2.06,13.25,13.25,0,0,0,5.79-4.81v6.05h11.3V0Zm-3,60a11.8,11.8,0,0,1-10.15,5,11.79,11.79,0,0,1-10.17-5,20.84,20.84,0,0,1-3.6-12.48A20.74,20.74,0,0,1,15.34,35a11.81,11.81,0,0,1,10.15-5,11.82,11.82,0,0,1,10.13,5,20.65,20.65,0,0,1,3.65,12.46A20.75,20.75,0,0,1,35.64,60Z"/>
    <path class="cls-1" d="M17.1,97.59H6.44c-4.53,0-6.2,1.77-6.2,6v28.84c0,1.5,1,2.45,2.86,2.45s2.86-1,2.86-2.45V105.14a2.11,2.11,0,0,1,2.37-2.31H17.1a2.37,2.37,0,0,0,2.51-2.65A2.31,2.31,0,0,0,17.1,97.59Z"/>
    <path class="cls-1" d="M405.19,101.06a2.48,2.48,0,0,0,.7,1.63,44.86,44.86,0,0,1,5.5,7.42,1.86,1.86,0,0,0,1.81,1.16,2.12,2.12,0,0,0,2.3-1.9,3.39,3.39,0,0,0-.49-1.77,42.35,42.35,0,0,0-6-7.62,2.31,2.31,0,0,0-1.81-.75A2,2,0,0,0,405.19,101.06Z"/>
    <polygon class="cls-1" points="367.73 94.99 378.82 94.99 406 21.26 394.28 21.26 382 56.55 369.35 21.26 357.58 21.26 376.48 71.14 367.73 94.99"/>
    <path class="cls-1" d="M419.11,49.68q1,.41,3.26,1.22t3.92,1.53A17.6,17.6,0,0,1,429.14,54Q432,55.58,432,58.12,432,65,424.64,65q-7.53,0-11.79-9.46l-9.37,5a24.06,24.06,0,0,0,8.06,10.09,21,21,0,0,0,12.68,3.94q8.35,0,13.41-4.78A15.28,15.28,0,0,0,440.87,51a13.14,13.14,0,0,0-4.73-4.5L435,45.79q-.54-.33-1.15-.66l-1-.51q-.36-.18-1.1-.48c-.49-.2-.85-.34-1.06-.41l-1.36-.48-1.46-.53a51,51,0,0,1-5.31-2.16,12,12,0,0,1-3-2.11,4.36,4.36,0,0,1-1.36-3.25,4.89,4.89,0,0,1,1.51-3.81A5.47,5.47,0,0,1,423.6,30,11.58,11.58,0,0,1,433,34.78l6.89-6.05a18.5,18.5,0,0,0-6.77-6.1,18.78,18.78,0,0,0-9-2.24,16.93,16.93,0,0,0-11.63,4.25,13.64,13.64,0,0,0-4.79,10.65Q407.7,45,419.11,49.68Z"/>
    <path class="cls-1" d="M59.82,62.42a25.3,25.3,0,0,0,4.82,6.2,21.44,21.44,0,0,0,7.12,4.3,26.11,26.11,0,0,0,9.37,1.63q8.69,0,14.06-3.43t9.48-11.31l-9.48-3.66A15.45,15.45,0,0,1,81.13,65a12.31,12.31,0,0,1-9.76-4.07A15.23,15.23,0,0,1,67.8,50.5h38.11V45.82a28.56,28.56,0,0,0-.91-7.14,26.27,26.27,0,0,0-2.89-6.86A24.81,24.81,0,0,0,97.32,26a21.32,21.32,0,0,0-7-4,26.47,26.47,0,0,0-9.16-1.53A26.11,26.11,0,0,0,71.81,22a21.59,21.59,0,0,0-7.13,4.3,25.15,25.15,0,0,0-4.84,6.23A28.39,28.39,0,0,0,57,39.87a33.38,33.38,0,0,0,0,15.26A28.06,28.06,0,0,0,59.82,62.42ZM72.46,33.13A12.45,12.45,0,0,1,81.13,30,12.47,12.47,0,0,1,90,33.15a13.54,13.54,0,0,1,4.11,8.29H68A14.48,14.48,0,0,1,72.46,33.13Z"/>
    <path class="cls-1" d="M222.23,100.18a2.48,2.48,0,0,0,.7,1.63,52.08,52.08,0,0,1,5.5,7,1.85,1.85,0,0,0,1.81,1.09,2.1,2.1,0,0,0,2.23-2,3.23,3.23,0,0,0-.42-1.56,40.55,40.55,0,0,0-6-7.28,2.31,2.31,0,0,0-1.81-.75A2,2,0,0,0,222.23,100.18Z"/>
    <path class="cls-1" d="M153.83,41.14q0-20.75-21.66-20.75a21.94,21.94,0,0,0-13.12,3.92,18,18,0,0,0-7.13,10.58L122.07,37q2.71-7,10-7a11.71,11.71,0,0,1,7.63,2.31q2.84,2.31,2.84,6.84v2.29h-9.27q-10.57,0-16.92,4.6A14.71,14.71,0,0,0,110,58.63q0,7.58,4.61,11.75t11.95,4.17q11,0,16.68-7.68l1.23,6.86h9.37Zm-11.3,10.53q0,6.31-4.27,9.87A14.92,14.92,0,0,1,128.42,65a6.76,6.76,0,0,1-5-1.73,6.22,6.22,0,0,1-1.74-4.63,7,7,0,0,1,3-5.95,13.45,13.45,0,0,1,8.1-2.19h9.74Z"/>
    <path class="cls-1" d="M87.17,106.57a3.89,3.89,0,0,0-.35-1.7A32.6,32.6,0,0,0,81.67,97a2.89,2.89,0,0,0-2-.88c-.84,0-2,.68-2,1.63a2.47,2.47,0,0,0,.7,1.7,41.61,41.61,0,0,1,4.67,7.62,2,2,0,0,0,2,1.36A2,2,0,0,0,87.17,106.57Z"/>
    <path class="cls-1" d="M296.4,127.46H243.54c-1.81,0-2.79,1.29-2.79,3.06s1,2.93,2.72,2.93h53c1.74,0,2.72-1.09,2.72-2.93S298.22,127.46,296.4,127.46Z"/>
    <path class="cls-1" d="M356.17,102.35a3.28,3.28,0,0,0-2-.68,3.34,3.34,0,0,0-2.37,1.09,84.92,84.92,0,0,1-18.95,15.71A116.75,116.75,0,0,1,306,131.13a2.92,2.92,0,0,0-2.09,2.72,5.21,5.21,0,0,0,.14,1,2.68,2.68,0,0,0,2.58,1.9,4.3,4.3,0,0,0,1.53-.27A127.81,127.81,0,0,0,333,125.28V156c0,1.84,1.32,2.65,3.13,2.65s3.06-.88,3.06-2.59v-34.7a97.23,97.23,0,0,0,17.48-14.9,3,3,0,0,0,.77-1.84A2.8,2.8,0,0,0,356.17,102.35Z"/>
    <path class="cls-1" d="M396.35,134.94c4.88-5.85,8.78-11.63,11-17.69a11.14,11.14,0,0,0,.84-3.95,6,6,0,0,0-1-3.4c-1.18-1.77-3.13-2.72-6.13-2.72l-35.45.34a2.48,2.48,0,0,0-2.58,2.72c0,1.84.9,3,2.58,3l33.29-.41c1.74,0,2.51.48,2.51,1.5a5,5,0,0,1-.35,1.5c-2.72,7.62-8.5,15.58-15.74,22.11a78.55,78.55,0,0,1-24.73,14.69,3.07,3.07,0,0,0-2.09,2.93,3.39,3.39,0,0,0,.21,1.16,2.55,2.55,0,0,0,2.58,1.7,4.88,4.88,0,0,0,1.67-.34c10.8-3.95,21.73-10.54,29.46-18.84a113.4,113.4,0,0,1,18.39,17.14,3.17,3.17,0,0,0,2.51,1.09,3.27,3.27,0,0,0,2.37-1,3,3,0,0,0,1-2.18,3.5,3.5,0,0,0-1-2.38C409.86,145.28,404.15,140.86,396.35,134.94Z"/>
    <path class="cls-1" d="M439.88,125.08c-1.74,0-2.86,1-2.86,2.45v27.28a2.13,2.13,0,0,1-2.44,2.31h-8.71a2.33,2.33,0,0,0-2.51,2.65,2.28,2.28,0,0,0,2.51,2.59h10.66c4.53,0,6.2-1.77,6.2-6V127.53C442.73,126,441.69,125.08,439.88,125.08Z"/>
    <path class="cls-1" d="M423.51,104.4A40,40,0,0,0,417.8,97a2.63,2.63,0,0,0-1.88-.82,1.94,1.94,0,0,0-1.18,3.54,41.39,41.39,0,0,1,5.22,7.21,2,2,0,0,0,1.81,1.09,2.12,2.12,0,0,0,2.16-1.9A3.6,3.6,0,0,0,423.51,104.4Z"/>
    <path class="cls-1" d="M241.66,106.16a3.6,3.6,0,0,0-.42-1.7A40,40,0,0,0,235.53,97a2.63,2.63,0,0,0-1.88-.82,2.08,2.08,0,0,0-2,1.77,2.27,2.27,0,0,0,.84,1.77,45.28,45.28,0,0,1,5.22,7.21,2,2,0,0,0,1.81,1.09A2.12,2.12,0,0,0,241.66,106.16Z"/>
    <path class="cls-1" d="M226.2,126.23a2.74,2.74,0,0,0-2.86-2.31,3.44,3.44,0,0,0-.84.07,2.62,2.62,0,0,0-2.3,2.65,3.33,3.33,0,0,0,.14.82c1.88,9.18,6.13,18.64,10.87,24.83a3.28,3.28,0,0,0,2.65,1.5,4,4,0,0,0,1.88-.54,2.88,2.88,0,0,0,1.25-2.45,3.54,3.54,0,0,0-.56-1.84C231.42,142.9,227.87,134.53,226.2,126.23Z"/>
    <path class="cls-1" d="M332.53,74.55q12,0,19.23-7.78A27.32,27.32,0,0,0,359,47.49a27.33,27.33,0,0,0-7.24-19.27q-7.24-7.83-19.23-7.83t-19.25,7.83q-7.18,7.78-7.18,19.27t7.18,19.27Q320.46,74.55,332.53,74.55Zm-10.9-39.36A13.05,13.05,0,0,1,332.53,30a12.6,12.6,0,0,1,10.8,5.19,19.55,19.55,0,0,1,4,12.31,19.7,19.7,0,0,1-4,12.41Q339.57,65,332.53,65a13,13,0,0,1-10.9-5.09,20.25,20.25,0,0,1-3.81-12.41A20.09,20.09,0,0,1,321.63,35.19Z"/>
    <path class="cls-1" d="M277,20.39a19.11,19.11,0,0,0-8.24,2.11,16,16,0,0,0-6.16,4.55V0h-11.3V73.73h11.3V67.68a13.2,13.2,0,0,0,5.77,4.81,19.63,19.63,0,0,0,8.83,2.06q11.65,0,17.79-7.07t6.14-20q0-12.71-6.24-19.91T277,20.39ZM285.86,60a12.67,12.67,0,0,1-20.22,0A20.79,20.79,0,0,1,262,47.49,20.68,20.68,0,0,1,265.66,35a12.62,12.62,0,0,1,20.17,0,20.72,20.72,0,0,1,3.64,12.46A20.82,20.82,0,0,1,285.86,60Z"/>
    <path class="cls-1" d="M209.57,51.56q0-9.56,4.68-15.61T224.06,30q4.36,0,6.36,2.08t2,7.48V73.73h11.3v-37q0-8.14-4.14-12.26t-11.94-4.12q-11.22,0-18.08,9.81V0h-11.3V73.73h11.3Z"/>
    <path class="cls-1" d="M192.39,72.72l-2.86-9.2A10.39,10.39,0,0,1,184.37,65q-7.13,0-7.13-8.54V30.82H191V21.26H177.24V0l-11.3,6.76V21.26h-8.75v9.56h8.75v25q0,9.1,4.8,13.91t13,4.81A19.67,19.67,0,0,0,192.39,72.72Z"/>
    <path class="cls-1" d="M124,133.24c4.88-5.85,8.78-11.63,11.07-17.69a12.65,12.65,0,0,0,.77-3.95,6.53,6.53,0,0,0-.91-3.4c-1.25-1.77-3.2-2.72-6.2-2.72l-35.45.34a2.48,2.48,0,0,0-2.58,2.72c0,1.84.91,3,2.58,3l33.29-.41c1.74,0,2.51.48,2.51,1.5a5,5,0,0,1-.35,1.5c-2.72,7.62-8.5,15.58-15.74,22.11a78.53,78.53,0,0,1-24.73,14.69A3.14,3.14,0,0,0,86.41,155a2.55,2.55,0,0,0,2.58,1.7,4.89,4.89,0,0,0,1.67-.34c10.8-3.95,21.73-10.54,29.46-18.84a113.38,113.38,0,0,1,18.39,17.14,3.38,3.38,0,0,0,2.51,1.09,3.31,3.31,0,0,0,2.44-1,3.24,3.24,0,0,0,.91-2.18,3.75,3.75,0,0,0-1-2.38C137.53,143.58,131.82,139.16,124,133.24Z"/>
    <path class="cls-1" d="M158.2,123.85a6.12,6.12,0,1,0,6.27,6.12A6.26,6.26,0,0,0,158.2,123.85Z"/>
    <path class="cls-1" d="M236.5,114.19a2.58,2.58,0,0,0-2.44-2.79H209.48v-8c0-1.77-1.46-2.58-3.13-2.58s-2.86.82-2.86,2.58v8H180.16a2.58,2.58,0,0,0-2.44,2.79,2.48,2.48,0,0,0,2.44,2.72h23.33v40.34c0,1.77,1.18,2.58,2.86,2.58s3.13-.82,3.13-2.58V116.91h24.59A2.48,2.48,0,0,0,236.5,114.19Z"/>
    <path class="cls-1" d="M190.74,124a5.54,5.54,0,0,0-1-.14,2.62,2.62,0,0,0-2.72,2.31c-1.6,8.23-5.15,16.87-9.68,22.86a3.08,3.08,0,0,0-.63,1.84,2.68,2.68,0,0,0,1.46,2.38,2.82,2.82,0,0,0,1.67.48,3.3,3.3,0,0,0,2.72-1.5c4.67-6.46,8.43-15.51,10.38-24.76,0-.27.07-.48.07-.75A2.64,2.64,0,0,0,190.74,124Z"/>
  </g>
</svg>
